<?xml version="1.0" encoding="UTF-8"?>
<!DOCTYPE svg PUBLIC "-//W3C//DTD SVG 1.1//EN" "http://www.w3.org/Graphics/SVG/1.1/DTD/svg11.dtd">
<!-- Creator: CorelDRAW X7 -->
<svg xmlns="http://www.w3.org/2000/svg" xml:space="preserve" width="173.567mm" height="22.0132mm" version="1.1" style="shape-rendering:geometricPrecision; text-rendering:geometricPrecision; image-rendering:optimizeQuality; fill-rule:evenodd; clip-rule:evenodd"
viewBox="0 0 17357 2201"
 xmlns:xlink="http://www.w3.org/1999/xlink">
 <defs>
  <style type="text/css">
   <![CDATA[
    .fil0 {fill:black;fill-rule:nonzero}
    .fil1 {fill:#880C0C;fill-rule:nonzero}
   ]]>
  </style>
 </defs>
 <g id="Layer_x0020_1">
  <metadata id="CorelCorpID_0Corel-Layer"/>
  <path class="fil0" d="M7635 409l-84 0 6 299 -5 540 -9 487 18 0 33 -411 31 -615 10 -300zm-139 1539l328 -14 235 2 1 61 -56 2 -427 -11 -146 -14 -38 -2c-1,-1 -2,-2 -4,-2 -2,-1 -4,-1 -6,-1 1,0 -4,-1 -17,-3 13,-2 20,-3 24,-4l64 -7 42 -7zm809 -646l75 21 -57 127 -60 152 -76 237c0,-38 6,-96 20,-175 9,-65 23,-127 40,-186 15,-57 34,-115 58,-176zm-200 -123l35 3c36,4 65,8 87,13l-40 155 -32 157 -37 225c-5,-20 -10,-53 -14,-99 -10,-96 -15,-173 -15,-230 0,-99 6,-173 16,-224zm-811 62l12 -184 20 89 20 201 3 135 -7 279 -17 149 -18 -170 -10 -176 -3 -94 0 -229zm1066 -381l3 -3 85 23c5,41 9,94 10,160l-98 -180zm57 -243l-124 -85c50,8 127,36 231,82l40 18c0,28 -2,53 -6,76 -2,4 -3,12 -4,23 -23,-22 -39,-36 -49,-43 -3,-3 -9,-8 -17,-16 -7,-4 -11,-8 -15,-11 -34,-27 -53,-41 -56,-44zm-288 -96l19 192 23 141 -80 1 0 -27c-1,-4 -2,-9 -2,-17 0,-68 4,-122 10,-160 1,-8 3,-16 4,-23 2,-7 3,-15 4,-22 4,-23 7,-38 9,-45 1,-8 5,-21 13,-40zm-278 -269l252 -4 327 -11c20,43 38,94 55,154 14,53 23,103 27,150 -113,-55 -258,-88 -434,-99l-26 -1c-9,73 -13,135 -13,184l3 301 222 -3 61 -5c45,77 77,158 95,242 -94,-30 -180,-45 -260,-45l-107 0 -13 0 -5 192 -3 202 8 166 13 182 -418 3 -238 11 21 -390 9 -379 2 -336 -7 -268 -11 -246 440 0zm666 -18l82 -6c-4,111 -15,208 -33,293l-2 1c-3,-88 -13,-161 -30,-221l-13 -49c-2,-3 -3,-9 -4,-18zm-1220 119l-23 -239 702 42 244 20 -29 5 -155 12 -177 5 -228 -1 -284 -10 15 306 4 325 -45 -249 -24 -216z"/>
  <path id="1" class="fil0" d="M8920 1212l10 -367 -79 33 7 122 8 255 5 491 22 -3 20 -336 7 -195zm-233 483l6 248 162 -9 181 -1 34 3 -268 58 -151 41c-4,-23 -6,-46 -6,-69 0,-39 4,-85 13,-140 10,-61 20,-105 29,-131zm678 -775l3 -26 8 56 13 165 10 248 -2 271 -9 197c-10,-53 -18,-114 -25,-182 -8,-72 -13,-129 -13,-171l-3 -160 5 -213c1,-32 5,-94 13,-185zm-736 -57l0 -15c27,54 46,106 57,158 11,49 16,106 16,171 0,67 -7,144 -20,230l-5 -17 -22 -160 -18 -204c-1,-27 -3,-47 -4,-60l0 -44 -3 -36c-1,-3 -1,-11 -1,-23zm314 -230l-162 47 -122 42 -35 -66 169 -21c1,-1 6,-2 11,-2 8,0 13,0 16,-1 18,-1 33,-1 46,-2 13,0 20,0 20,0l17 0c6,0 11,1 15,1 4,0 8,0 11,1l7 0c1,1 3,1 7,1zm341 -45l8 196 4 179 3 225 -4 245 6 208 19 222 -50 -4 -218 -2 -314 8 11 -374 1 -136 -4 -298c-2,-67 -5,-115 -9,-144 -6,-30 -17,-66 -35,-107 55,-31 103,-56 145,-75 47,-20 96,-39 147,-56 92,-31 189,-60 290,-87zm-659 -99l0 -39 5 2c64,42 143,87 236,136 -88,-3 -167,-9 -238,-17 -2,-31 -3,-58 -3,-82zm379 -291c75,29 133,55 175,79 45,26 88,60 129,100l-72 56c0,0 -3,2 -11,8 -8,5 -15,10 -21,13l-93 62c-46,34 -78,50 -95,50 -23,0 -77,-22 -162,-66 -37,-18 -86,-49 -145,-91 87,-82 185,-152 295,-211zm-174 -1l25 -7 -129 89 -98 79 6 -85c65,-33 130,-58 196,-76zm285 -31l-4 -2c38,1 80,7 125,15 50,9 94,20 131,33 1,5 1,12 1,22 0,2 0,6 -1,13 0,7 -1,14 -2,23 0,12 0,20 -1,25l-132 -75c-29,-16 -68,-33 -117,-54z"/>
  <path id="2" class="fil0" d="M10359 866c4,6 14,20 29,43l34 57c22,39 34,67 34,84 0,7 -1,18 -4,31 -3,34 -5,71 -8,112 -4,78 -6,149 -6,212 0,114 11,226 35,335l15 0 -8 -190 0 -15c-1,-3 -1,-7 -1,-14 0,-10 0,-17 1,-22l0 -29 3 -80c1,-54 6,-109 13,-164 8,-62 19,-119 33,-169 -4,-7 -7,-12 -10,-16 -2,-3 -3,-5 -4,-5l-28 -38c-30,-44 -72,-88 -128,-132zm-605 -28l-65 19 18 209 11 291 0 379 11 -1 21 -251 11 -208 2 -178c0,-33 0,-58 -1,-76l-1 -70c0,-17 -2,-47 -5,-89l0 -13c-1,-3 -2,-7 -2,-12zm358 1091l-2 61 -87 -18 -164 -25 -161 -14c-35,-2 -67,-5 -94,-8 90,-15 172,-22 245,-22 114,0 202,8 263,26zm893 -171l0 61 -142 38c-75,22 -148,36 -219,42 48,-27 94,-50 139,-69 39,-16 97,-35 172,-57 15,-4 31,-8 50,-15zm-746 -157l4 -22 4 41c7,76 15,138 24,186 11,56 26,115 46,178 -30,7 -65,12 -105,14 -2,-28 -4,-62 -4,-102 0,-83 7,-162 20,-237l11 -58zm-9 -557c9,45 14,76 14,94 0,7 -1,21 -2,41 0,-1 -1,5 -3,18 -1,7 -2,17 -4,32 -7,65 -12,102 -15,111l-21 127 -45 221 -3 -28c-7,-76 -11,-130 -11,-164l0 -14 2 -67c0,-8 1,-20 1,-35l14 -158c6,-61 30,-120 73,-178zm702 -31l5 30 28 302 20 321 -3 9c-57,-78 -85,-181 -85,-308 0,-125 12,-243 35,-354zm-1435 -30l4 -55c32,148 48,296 48,446 0,24 0,40 -1,46l-8 160 -18 182 -16 135c0,-9 -2,-16 -3,-21 -1,-5 -2,-9 -2,-11l-8 -82c-5,-71 -8,-103 -8,-96l0 -27 -3 -194 4 -271 11 -212zm591 -334c30,0 56,0 78,1 21,1 32,1 34,1l44 0c-2,2 -5,4 -7,5 -2,2 -5,3 -6,5 -3,1 -5,3 -7,4l-33 31 -45 31c-2,2 -5,4 -8,7 -4,3 -7,6 -11,10 -12,-33 -21,-56 -27,-68 0,-2 0,-4 -1,-5 -1,-2 -2,-4 -2,-6 -1,-4 -4,-10 -9,-16zm-548 67l-14 -66 236 -22c-59,30 -133,60 -222,88zm1339 -91l40 285c-8,-10 -16,-22 -24,-32l-43 -71c-38,-55 -79,-111 -123,-169l-17 -21c11,0 19,0 24,-1l20 0c46,0 87,3 123,9zm-931 17l62 -14c33,53 59,120 80,200 70,-53 142,-100 218,-140 76,-43 124,-64 141,-64 13,0 32,5 59,14 10,3 26,8 45,13 80,21 129,41 145,58 51,53 107,130 168,232l-16 230c-2,41 -4,83 -4,124 0,169 20,305 60,407l-43 22c-101,50 -191,89 -267,115 -74,27 -153,48 -236,64 -20,-82 -34,-145 -42,-191 -7,-44 -12,-91 -14,-140l-4 -149 6 -168 11 -170c-25,-52 -52,-97 -84,-135 -43,39 -82,82 -118,129l-21 332 -3 140 8 305 -17 -1 -256 -5 -245 3 16 -506 -6 -214 -11 -171 -29 -187c66,-31 126,-56 180,-75 52,-19 124,-38 217,-58z"/>
  <path id="3" class="fil0" d="M11761 1237l3 6c12,90 19,169 19,237 0,49 -1,83 -2,103 -24,-15 -43,-50 -57,-102 -1,-3 -2,-9 -4,-18 -1,-3 -3,-7 -5,-13 -6,-17 -8,-31 -8,-40 0,-6 1,-13 3,-21l15 -51c12,-42 24,-75 36,-101zm-422 63l99 -167 -55 53c-19,18 -36,36 -52,52 -25,26 -37,39 -37,39 -15,14 -23,28 -25,43l-15 81 -10 62 -6 47c-1,3 -2,9 -2,20 0,7 4,15 11,25 6,7 13,16 22,28 29,41 70,90 123,150 -31,-54 -52,-94 -63,-120l-23 -51c-10,-25 -15,-39 -15,-44 1,-16 5,-38 12,-65 6,-19 11,-47 16,-81 6,-35 13,-58 20,-72zm357 319c13,9 28,17 43,23 16,7 27,11 34,11 8,0 29,-10 62,-31 13,-10 20,-30 21,-61l5 -141 4 -219 -3 -95c-8,2 -19,6 -30,13l-71 34c-24,12 -38,22 -44,29 -5,6 -12,22 -21,48l-32 93 -16 49c-7,25 -11,40 -11,44 0,12 5,34 15,66l36 113c0,3 2,11 8,24zm206 -899c19,36 35,67 49,94l26 57c8,14 13,24 14,29 0,4 1,24 1,59l2 91 0 83c0,65 1,108 2,129l5 423 33 -282 31 -343c5,-46 8,-82 8,-108 0,-16 -2,-29 -7,-40 -6,-11 -18,-27 -36,-48l-33 -41c-13,-17 -45,-51 -95,-103zm356 1192l131 3 73 7 21 62 -158 -30 -71 -10 -228 -22c70,-7 136,-11 200,-11 14,0 25,0 32,1zm-322 3l-175 -8 134 -68 41 76zm-833 -70l6 -181 4 0 16 23c21,28 48,60 80,95 25,24 43,41 54,49 13,10 36,23 68,39l65 34c16,9 26,16 29,19 -22,-3 -46,-8 -69,-15 -46,-11 -91,-22 -136,-33 -65,-16 -104,-27 -117,-30zm621 -997c32,7 58,26 79,58l-198 28c5,-5 9,-8 11,-8 2,-1 4,-3 8,-7 11,-9 21,-17 29,-24 8,-6 14,-10 17,-10l20 -14c22,-15 33,-23 34,-23zm-554 -132c3,5 5,10 8,15 1,1 2,3 3,5 2,1 3,3 3,5 1,2 3,4 4,6 1,1 2,3 2,5l13 19 76 124c19,29 38,56 59,82 -8,5 -11,8 -12,9 -2,2 -3,4 -4,4 -1,0 -2,1 -3,2 -18,14 -27,22 -27,22 -2,3 -5,5 -7,6 -2,2 -6,4 -10,9 -2,3 -6,5 -9,8 -3,2 -6,4 -8,7l-31 31c-2,2 -3,3 -5,5 -2,2 -3,3 -4,4 -1,1 -2,2 -4,4 -2,1 -4,3 -7,6l32 -157 -53 -162c-7,-18 -12,-38 -16,-59zm1269 1118l4 25 -180 -7 -215 -2 -66 5 -61 -86c-35,13 -81,34 -140,63l-131 73c-90,-3 -200,-35 -331,-96 -85,-88 -148,-170 -188,-247 2,-45 5,-88 9,-130 5,-42 12,-79 20,-114 6,-21 24,-56 55,-103 33,-46 60,-80 81,-102l28 -30c12,-12 20,-21 24,-26l28 -10c45,-16 77,-25 98,-30l49 -14 48 -14 112 -18 185 -22c-17,-88 -56,-156 -118,-204 -59,23 -116,54 -171,91 -55,38 -108,83 -159,135 -25,-28 -52,-60 -78,-95 -21,-27 -46,-66 -76,-117l18 -10c0,0 15,-6 45,-19 -1,0 13,-6 42,-19 79,-37 164,-65 254,-86 90,-20 177,-30 261,-30 30,0 85,18 165,54 80,33 163,82 251,147 27,19 41,29 44,32 18,10 28,18 31,23 4,8 8,20 10,39l14 72c14,80 21,199 21,359 0,64 -1,113 -3,148l-4 101 0 61c0,57 8,124 24,203zm-305 -1250c45,9 95,24 152,43l80 27c77,26 142,51 196,76l-11 251 -5 70 -19 160c0,2 0,4 0,8 -1,3 -2,5 -3,7 -1,4 -1,8 -1,12 -1,3 -1,6 -1,10l-11 80c-9,66 -19,119 -28,160l-5 -393c0,-7 -1,-15 -1,-25 -1,-10 -3,-29 -5,-55 -1,-31 -3,-53 -4,-67 -1,-28 -1,-47 -3,-59 -1,-11 -2,-19 -2,-24 -3,-26 -5,-46 -5,-62 0,-16 -1,-25 -4,-29 -6,-6 -13,-10 -23,-15 -6,-5 -31,-21 -76,-50 -26,-18 -59,-37 -99,-58 -54,-26 -94,-49 -122,-67zm-734 -11l179 -21 -156 61c-75,30 -138,59 -189,87 -3,-7 -6,-14 -10,-21 -3,-8 -6,-15 -9,-19 -5,-14 -10,-26 -13,-36 -4,-10 -7,-17 -9,-21l207 -30z"/>
  <path id="4" class="fil0" d="M13524 866c4,6 14,20 29,43l33 57c23,39 35,67 35,84 0,7 -2,18 -4,31 -3,34 -6,71 -8,112 -5,78 -7,149 -7,212 0,114 12,226 36,335l15 0 -9 -190 0 -15c0,-3 0,-7 0,-14 0,-10 0,-17 0,-22l0 -29 3 -80c2,-54 7,-109 14,-164 8,-62 19,-119 33,-169 -5,-7 -8,-12 -10,-16 -2,-3 -4,-5 -5,-5l-28 -38c-29,-44 -72,-88 -127,-132zm-605 -28l-66 19 19 209 11 291 0 379 10 -1 22 -251 10 -208 3 -178c0,-33 0,-58 -1,-76l-2 -70c0,-17 -1,-47 -5,-89l0 -13c-1,-3 -1,-7 -1,-12zm358 1091l-3 61 -86 -18 -164 -25 -161 -14c-35,-2 -67,-5 -95,-8 91,-15 173,-22 245,-22 115,0 203,8 264,26zm893 -171l0 61 -142 38c-75,22 -148,36 -219,42 47,-27 94,-50 138,-69 40,-16 98,-35 173,-57 15,-4 31,-8 50,-15zm-746 -157l4 -22 4 41c7,76 15,138 23,186 11,56 27,115 47,178 -31,7 -66,12 -105,14 -3,-28 -4,-62 -4,-102 0,-83 6,-162 20,-237l11 -58zm-10 -557c10,45 15,76 15,94 0,7 -1,21 -3,41 0,-1 -1,5 -2,18 -1,7 -3,17 -5,32 -6,65 -11,102 -14,111l-21 127 -45 221 -3 -28c-8,-76 -11,-130 -11,-164l0 -14 1 -67c1,-8 2,-20 2,-35l14 -158c6,-61 30,-120 72,-178zm702 -31l5 30 29 302 20 321 -3 9c-57,-78 -86,-181 -86,-308 0,-125 12,-243 35,-354zm-1434 -30l4 -55c31,148 48,296 48,446 0,24 -1,40 -2,46l-8 160 -17 182 -16 135c-1,-9 -2,-16 -4,-21 0,-5 -1,-9 -1,-11l-8 -82c-6,-71 -8,-103 -8,-96l0 -27 -3 -194 4 -271 11 -212zm591 -334c30,0 56,0 77,1 22,1 33,1 35,1l44 0c-3,2 -5,4 -7,5 -3,2 -5,3 -6,5 -3,1 -5,3 -7,4l-33 31 -46 31c-2,2 -4,4 -7,7 -4,3 -8,6 -11,10 -13,-33 -22,-56 -27,-68 0,-2 -1,-4 -1,-5 -1,-2 -2,-4 -3,-6 -1,-4 -3,-10 -8,-16zm-549 67l-13 -66 236 -22c-59,30 -133,60 -223,88zm1340 -91l40 285c-9,-10 -17,-22 -24,-32l-44 -71c-37,-55 -78,-111 -122,-169l-18 -21c12,0 20,0 24,-1l20 0c46,0 88,3 124,9zm-931 17l61 -14c34,53 60,120 80,200 70,-53 143,-100 219,-140 76,-43 123,-64 141,-64 12,0 32,5 59,14 10,3 26,8 45,13 80,21 128,41 145,58 51,53 107,130 168,232l-16 230c-3,41 -4,83 -4,124 0,169 20,305 60,407l-43 22c-102,50 -191,89 -268,115 -73,27 -152,48 -235,64 -21,-82 -35,-145 -42,-191 -8,-44 -12,-91 -14,-140l-4 -149 5 -168 12 -170c-25,-52 -53,-97 -84,-135 -43,39 -83,82 -118,129l-22 332 -2 140 7 305 -17 -1 -255 -5 -245 3 16 -506 -6 -214 -12 -171 -28 -187c66,-31 126,-56 180,-75 52,-19 124,-38 217,-58z"/>
  <path id="5" class="fil0" d="M14722 1740c-42,-34 -72,-60 -89,-77l-60 -56c-16,-14 -27,-35 -33,-65l-34 -122 -17 -85c-10,-55 -14,-88 -14,-99 0,-26 7,-69 22,-130 14,-57 30,-105 47,-144 27,-27 52,-50 74,-69 40,-31 76,-59 107,-82 8,-5 16,-11 25,-18 -52,21 -100,41 -143,61l-63 32c-23,11 -36,19 -42,26 -7,8 -15,25 -24,51l-43 124c-9,25 -17,54 -24,87 -8,34 -11,53 -11,58 0,15 6,46 19,93l29 100c16,56 37,113 64,173 7,14 14,24 22,31 17,12 44,29 83,52l80 46c1,0 2,0 3,0 1,1 3,1 5,2 2,2 8,6 17,11zm783 6c1,0 4,5 10,12 2,5 4,9 6,11 2,3 5,8 8,15 1,4 8,14 20,31 -35,19 -74,36 -116,50 -44,16 -92,30 -145,40 -54,13 -99,21 -136,25l107 -45 146 -76c23,-11 48,-27 78,-48 10,-8 18,-13 22,-15zm-1208 -151l-29 -181 8 18 9 26c38,103 77,198 116,284 40,23 63,36 70,40l60 33 86 48c23,13 65,34 125,64 18,10 35,19 52,27 17,9 32,17 45,25l31 16 -163 -43 -159 -55 -197 -78 -19 -65 -35 -159zm991 -181c-26,30 -54,59 -81,86l-113 100 -4 -2 14 -126c66,-12 128,-31 184,-58zm79 -42c1,2 3,4 5,7 1,3 2,5 3,8 2,2 3,5 4,7l14 31 83 166c2,5 8,19 20,43l-108 -139 -76 -90 20 -12c2,-2 4,-4 6,-5 2,-1 5,-3 8,-5 3,-3 7,-5 13,-7 5,-3 8,-4 8,-4zm-288 -481l16 0c-17,61 -30,119 -40,174 0,4 0,9 -1,12 -1,4 -2,6 -2,7 -2,11 -4,18 -4,21l-17 149 -8 139 -5 196c-42,-68 -63,-167 -63,-295 0,-34 2,-77 6,-130 2,-30 6,-62 10,-95 6,-40 11,-70 17,-88 8,-20 17,-38 29,-53 20,-24 41,-37 62,-37zm336 -20l58 -119 -53 320 -7 56c0,-2 -2,-4 -5,-9 -4,-4 -6,-7 -9,-10l-23 -30c-16,-21 -30,-39 -43,-53l82 -155zm-23 -138l24 8c-38,77 -83,153 -134,227 -70,-71 -143,-128 -219,-170 -9,3 -16,7 -21,10 -5,3 -10,6 -14,7 -1,0 -1,1 -3,2 -1,1 -2,1 -2,1l-44 28c-27,17 -43,30 -48,37 -5,7 -9,21 -12,43l-8 69 -4 37c-4,50 -6,85 -6,102l9 376c0,24 2,43 7,57 2,2 5,6 8,10 3,4 5,7 6,9l34 41c4,5 11,13 20,24 10,12 16,19 20,23 5,6 12,9 19,10 10,3 20,4 30,4 -5,0 7,0 33,2 80,-55 151,-113 215,-175l18 -17c51,55 97,114 138,174l13 21c-108,86 -218,146 -329,181l-55 15c-61,19 -102,29 -124,29 -27,0 -80,-13 -158,-39 -90,-28 -184,-72 -283,-132l-47 -30c-19,-11 -31,-21 -37,-29 -5,-6 -12,-21 -22,-46l-24 -65c-11,-27 -22,-63 -33,-107 -11,-41 -22,-87 -33,-138 -1,-10 -4,-24 -7,-42 -6,-24 -8,-41 -8,-52 0,-1 1,-12 5,-35l16 -93c14,-77 49,-166 105,-265l137 -74 71 -33c61,-29 128,-57 200,-84 68,-25 112,-37 130,-37 16,0 37,5 64,14 4,1 27,6 68,17 56,13 120,32 193,56l92 29zm-622 -170l36 -8 -142 83 -162 99c-35,22 -64,40 -85,54 -10,6 -18,16 -26,27 -7,8 -19,31 -36,69 -1,2 -4,7 -7,13 -4,7 -7,15 -12,23 -15,29 -27,54 -35,73 -8,19 -16,36 -26,49l17 -148 16 -97 104 -69 138 -74 137 -61 83 -33zm713 43l-32 70 -239 -75 -193 -51c9,-1 23,-2 40,-2 53,0 122,6 208,18 96,14 168,27 216,40z"/>
  <path id="6" class="fil0" d="M16295 1015c13,30 34,62 65,98l-61 22c-4,-29 -7,-53 -7,-72 0,-13 1,-29 3,-48zm55 -160l1 0c29,56 44,111 44,166l0 24c-15,-12 -29,-27 -41,-43 -10,-13 -17,-26 -22,-39 -4,-14 -6,-28 -6,-41 0,-20 3,-35 9,-44l11 -15c1,-3 2,-6 4,-8zm-359 -35c-56,34 -90,57 -102,68l-56 45c-19,15 -32,27 -36,34 -5,8 -9,20 -12,36l-8 48c0,-6 -1,5 -3,30 -3,24 -5,37 -5,38 -5,47 -7,73 -7,76l-3 71c0,19 -1,36 -2,49 -1,15 -1,23 -1,27 0,11 9,34 28,69l35 67c1,2 4,5 7,9 3,4 6,9 8,13 3,6 11,19 24,40l81 128 12 -4c-19,-28 -34,-53 -45,-74l-36 -81c-6,-12 -9,-19 -9,-21l-51 -136 0 -28c0,-23 2,-51 6,-84 3,-43 5,-63 5,-60l12 -99c3,-34 8,-60 15,-78 2,-4 5,-7 6,-10 2,-3 4,-5 7,-8 3,-5 5,-8 5,-8l27 -37c19,-28 41,-57 69,-87l13 -15c8,-8 13,-14 16,-18zm356 -39l-25 26c-1,1 -2,2 -3,4 -2,1 -4,3 -5,4 -1,1 -2,2 -4,4 -1,1 -2,3 -4,5l-41 48c-3,3 -6,6 -9,9 -2,3 -6,7 -10,12 -6,17 -11,39 -12,66l-3 54 0 26c-1,6 -1,17 -1,33 0,58 2,108 6,153l164 -62 40 -14c9,-65 14,-141 14,-226 -33,-52 -69,-100 -107,-142zm138 -15c7,10 16,24 29,42 9,18 21,38 34,58 7,11 11,18 12,24 2,9 3,24 3,44l0 64 0 30 -2 82 71 -17 -1 -36c-3,-70 -7,-133 -12,-188 -48,-42 -93,-77 -134,-103zm391 1086l-195 55 284 -156 0 71 -89 30zm-1220 -185l-20 -106c41,64 91,127 152,193 30,34 74,64 133,91l77 34c2,1 6,3 13,6 6,2 14,6 22,11 -41,-3 -63,-5 -65,-6l-58 -8 -22 -4 -132 -28 -58 -16 -42 -167zm1308 48l-82 -213 63 3 6 28 13 182zm-44 -390l61 -5 24 67 -153 11 -212 21 -224 39 0 15c-1,1 -1,5 -1,9 0,8 3,34 8,80 0,-3 1,6 2,28 -20,-19 -35,-33 -42,-43 -11,-12 -19,-25 -25,-40 -6,-11 -11,-28 -18,-52 42,-18 85,-32 128,-43 78,-23 132,-37 163,-42l122 -24 167 -21zm57 -85l-173 25 -177 32 -167 38 -149 43 -64 20c15,70 45,137 91,202 17,24 33,41 50,52 16,10 33,15 52,15 10,0 17,1 20,1l4 0 0 0 1 0c4,0 9,0 14,-2l134 -93 130 -92c46,58 87,142 123,251 -107,56 -217,101 -331,136 -118,37 -192,55 -221,55 -42,0 -140,-34 -295,-103 -58,-28 -93,-44 -105,-50 -27,-13 -46,-24 -56,-33 -9,-8 -19,-19 -29,-34l-50 -66c-37,-51 -72,-110 -106,-179 -13,-30 -22,-50 -25,-63 -3,-9 -4,-23 -4,-40 0,-59 3,-122 10,-188 7,-57 15,-106 27,-146l27 -86c7,-23 13,-37 17,-42 4,-7 15,-18 35,-33l42 -35c46,-36 115,-76 209,-121 91,-43 177,-77 258,-102 134,34 238,65 312,92 79,30 148,64 210,104 39,23 64,39 75,49 12,11 20,22 23,32 2,4 4,9 7,18 2,8 5,18 9,31 4,12 8,27 13,43 14,43 28,103 44,181 9,36 13,65 15,88zm-365 -645l-28 -18 187 47 220 66 22 170c0,-4 2,21 7,74l4 43c2,23 5,59 6,107l-49 -169 -49 -150 -140 -79 -180 -91zm-559 -21l-171 119 -137 100 -55 43c-20,17 -32,27 -34,32 -5,8 -10,21 -16,40l-19 55c-9,27 -19,70 -32,128l-17 -259 213 -125c26,-16 75,-42 148,-79 39,-19 79,-37 120,-54z"/>
  <path class="fil1" d="M925 660l-76 -145 -81 34 45 72 91 152 118 222 71 141 34 74c0,0 1,1 2,3 2,1 3,2 3,3 0,1 1,2 2,3 1,2 1,4 1,5 1,1 2,2 3,4 0,2 0,4 0,6l2 121 -6 196 -11 165 -6 46 49 -261c1,-2 1,-4 2,-7 0,-2 1,-5 1,-7 0,-5 0,-9 1,-13 0,-7 1,-12 1,-17 5,-69 7,-101 7,-96 7,-48 10,-84 10,-108 0,-52 -42,-152 -127,-300l-136 -293zm395 1318l210 -12 230 -2 -7 73 -255 -23 -226 -28 48 -8zm-621 -701c42,81 74,151 95,212l18 51c16,47 26,76 27,87l48 192 -32 165 -63 -309 -49 -214c-2,-11 -11,-45 -28,-103 -8,-30 -14,-56 -16,-81zm1203 -141l-58 230 -45 225 -23 161 -14 146c-27,-73 -41,-144 -41,-212 0,-106 31,-229 91,-371 35,-84 65,-144 90,-179zm-1219 -273l-70 -151c26,26 48,53 65,81l65 94c4,6 8,11 10,14 2,3 5,7 7,12 4,7 15,25 32,52 39,63 68,112 87,145 10,20 24,44 40,72 9,12 14,24 14,35 0,-1 -1,13 -3,45 -2,43 -3,64 -3,61l-1 47c0,46 0,75 -1,87l-9 165c0,14 0,24 -1,32l-59 -270 -50 -199 -37 -115 -86 -207zm1310 -155l-76 142c-1,1 -2,1 -2,3 -1,1 -4,8 -11,21l-49 101c-31,66 -55,122 -72,170 -23,57 -39,107 -48,150l-23 97c-1,1 -2,4 -2,9 0,0 0,2 -1,5 -1,2 -3,6 -5,11l-5 -48c0,22 -1,-9 -3,-94l0 -56 3 -74c0,-19 2,-34 7,-45 6,-12 16,-31 32,-53l88 -130 31 -42 25 -32 58 -75c24,-29 42,-50 53,-60zm-781 -466c17,75 52,171 105,288 53,115 119,239 199,369 64,-100 113,-191 147,-273 20,-48 34,-89 41,-123 8,-33 12,-71 12,-111 0,-32 -2,-63 -6,-92l230 -2 142 -5c-25,153 -89,298 -193,435l-102 135 -33 47c-26,38 -59,95 -102,172 -10,20 -17,38 -22,54 -5,21 -8,46 -9,73l-3 72 -3 260c0,39 1,67 2,84 0,8 0,40 2,97 1,26 3,42 4,47l0 18 11 86c0,2 1,5 2,10 1,5 1,10 1,16l-220 -5 -444 7 8 -52 18 -160 8 -155 3 -182 -1 -146 -120 -213 -98 -164 -114 -177 -122 -168c69,-45 164,-89 283,-133 115,-43 239,-79 374,-109zm-285 -2l24 -2 -211 82 -223 102c3,-8 4,-15 4,-19 3,-20 6,-30 8,-32l7 -28c0,0 1,-2 1,-6 1,-3 2,-7 2,-11l102 -31c30,-10 79,-21 144,-34 61,-11 109,-18 142,-21zm345 -27l0 -8 50 96 85 154c2,2 5,7 10,14 5,8 11,17 17,29l36 52c32,51 70,81 115,91l-13 29c-17,37 -35,69 -53,97 -80,-101 -145,-223 -193,-364l-31 -92c-15,-53 -23,-86 -23,-98zm777 22l-302 12 -105 9 3 23c4,45 6,74 6,88 0,54 -11,114 -34,181l-3 -28c-5,-62 -11,-114 -17,-156 -8,-42 -23,-95 -45,-159 40,-3 68,-5 84,-5l29 0 74 3 50 2c51,2 112,8 183,16 28,3 54,7 77,14z"/>
  <path id="1" class="fil1" d="M2953 760l15 176 23 159 38 195 38 169 19 70c3,5 5,10 6,13 0,3 0,5 0,6 3,9 4,16 4,21 0,4 -1,11 -4,22l-11 37c-2,7 -6,16 -12,27 -32,-40 -58,-77 -76,-110 -19,-33 -37,-76 -57,-129l-10 -182 3 -186 12 -179c1,-49 5,-85 12,-109zm123 98l-51 -305 42 -37c19,38 34,86 44,146 11,65 15,135 15,210 0,45 -3,102 -12,170l-38 -184zm-520 -356c-50,39 -89,72 -117,101l-87 88c-29,28 -43,44 -43,45l-10 160 -6 214 3 160 5 112 118 176c0,2 9,15 27,37l38 50c1,0 21,24 60,71l7 3c-6,-10 -11,-17 -14,-21l-10 -16c-49,-82 -85,-149 -108,-203l-45 -102c-7,-16 -12,-30 -14,-41 -1,-13 -2,-37 -2,-73 0,-39 0,-65 1,-76l5 -154 9 -148 19 -175c0,-5 10,-19 29,-41 4,-4 8,-9 14,-17 2,-3 16,-22 43,-55 11,-16 24,-32 41,-51l15 -16c4,-6 7,-10 10,-13 2,-4 5,-7 7,-8 2,-3 3,-5 5,-7zm682 -77c27,67 44,114 53,142l12 40c5,19 7,30 8,30l22 155 20 197 12 206 6 225 1 99 0 23c0,8 0,13 1,16l0 14c0,16 -8,39 -23,68l-26 49 -69 118c28,-29 58,-62 88,-99 21,-26 44,-56 70,-92l7 -241 -1 -240 -17 -312 -18 -154c-37,-77 -86,-159 -146,-244zm-186 -22c-58,48 -119,116 -184,204l-17 187 -5 207 1 175 7 116 20 265c0,3 4,10 12,20l56 87c21,31 49,69 84,113l17 19c65,-46 116,-96 154,-151l36 -53c3,-3 5,-7 5,-10l-1 -177 -9 -306 -20 -281 -26 -220c0,-6 -4,-14 -11,-24 -4,-6 -8,-12 -11,-19 -6,-9 -13,-20 -21,-34 -3,-5 -7,-12 -13,-21 -6,-9 -13,-19 -20,-31l-36 -46c-7,-9 -13,-17 -18,-20zm525 1550l173 -124 206 -154c-13,45 -27,84 -41,117 -4,7 -10,14 -18,19l-54 31c-36,22 -92,48 -165,78 -26,10 -60,21 -101,33zm-1433 -358l-45 -178c7,11 12,19 15,24 3,5 4,9 5,11l68 113c10,17 23,39 39,64 16,25 34,52 54,82 20,29 35,52 47,69 17,24 33,47 50,66l33 16c87,39 133,60 141,64 34,13 65,28 95,43l-229 -55 -103 -27c-29,-6 -47,-13 -55,-19 -8,-6 -20,-26 -37,-61 -11,-25 -26,-63 -45,-114 -17,-48 -28,-80 -33,-98zm380 -1294l-122 102 -103 95 -115 116 -57 63 20 -146 103 -74c60,-44 107,-75 141,-93l66 -33c26,-13 49,-24 67,-30zm942 -95l85 18 334 85 33 175 10 58c12,58 18,107 19,148l-12 -27c-47,-104 -83,-176 -108,-216l-29 -49c-3,-3 -7,-10 -13,-21l-63 -37c-1,-1 -3,-3 -6,-4 -3,-1 -6,-3 -11,-5 -6,-4 -16,-10 -30,-16 -16,-10 -31,-18 -47,-25l-115 -57c1,0 -8,-5 -27,-15 -1,-1 -2,-2 -4,-3 -2,-1 -3,-2 -4,-2 -6,-4 -11,-6 -12,-7zm-228 36l192 53 86 35c17,5 29,10 37,13 13,5 22,8 24,9 2,1 9,4 22,10 28,9 49,18 62,27 13,10 28,27 46,51 34,43 69,99 107,168 37,68 67,133 91,196 16,39 24,63 26,71 4,16 6,41 6,76l0 34 3 135 -3 165c0,25 -1,45 -3,62 -4,14 -11,35 -22,62l-15 38c-24,57 -62,131 -114,221 -19,32 -39,58 -63,77 -23,19 -64,45 -122,76 -18,9 -37,18 -58,26 -10,4 -21,8 -34,12 -12,4 -37,13 -75,26 -37,14 -69,25 -95,34 -60,20 -110,34 -150,43 -95,22 -150,32 -167,32 -16,0 -45,-5 -85,-15 -40,-10 -77,-21 -112,-33l-336 -125c-23,-10 -40,-23 -51,-39l-46 -62c-13,-18 -22,-29 -25,-33l-80 -127 -80 -141c-12,-26 -20,-44 -24,-56 -5,-11 -7,-28 -8,-51l1 -67 -1 -220c0,-88 9,-178 26,-272 5,-24 8,-39 8,-45 5,-23 9,-36 13,-42 2,-6 11,-15 25,-30 6,-4 14,-11 23,-22 115,-112 199,-186 250,-222 54,-38 122,-69 206,-92l284 -80 49 -10c17,-3 28,-4 32,-4 8,0 23,2 45,8 1,0 5,1 10,2 6,1 11,3 15,4 5,1 10,2 17,4 8,1 15,2 22,4 0,0 4,1 13,4 9,3 18,6 28,10z"/>
  <path id="2" class="fil1" d="M5268 1183l-90 0c15,53 26,105 34,156 6,45 9,103 9,173 0,37 0,60 -1,68l-15 207 35 -132c5,-15 11,-47 17,-95l8 -63c9,-66 12,-123 12,-171l0 -19c-1,-3 -1,-7 -1,-14l-7 -88 0 -10c-1,-3 -1,-7 -1,-12zm-732 -566l94 -129c-71,62 -133,126 -187,193 -59,73 -111,149 -156,229l-4 21 -5 182c0,3 1,7 2,9l0 21c1,3 1,21 1,54 0,31 3,73 7,126l8 65c0,1 1,4 2,9 1,5 1,11 1,19 9,15 19,29 29,40l48 52c85,93 169,166 251,218 -51,-49 -95,-94 -131,-135l-26 -32 -19 -23 -101 -137c-7,-54 -11,-111 -11,-169l3 -97 0 -20 13 -131c2,-42 9,-73 21,-95 26,-54 50,-98 72,-134l88 -136zm1068 1394l-62 1 -165 12 -207 27c60,-29 108,-50 145,-62 38,-13 86,-24 146,-33l15 -3c36,9 78,29 128,58zm-1523 -780l35 206 17 81c12,15 42,47 89,94l81 77c52,47 108,93 170,136 63,43 126,82 189,114 63,33 117,55 162,67l86 20c16,4 25,6 25,6 -47,2 -64,2 -54,2 -123,0 -258,-22 -404,-67 -28,-22 -53,-43 -74,-62l-105 -98 -134 -140 -91 -107 0 -190 2 -20 4 -94c0,8 1,-1 2,-25zm837 -15l-1 -46c39,64 72,138 99,222 0,7 -1,10 -2,10l-4 37c-3,31 -10,65 -22,102 -13,43 -20,69 -21,77l-4 6 -27 -217 -18 -191zm882 -183c4,41 7,86 7,135 0,21 -1,34 -2,38l-11 157 -22 169 -13 75c-13,-72 -18,-153 -18,-242 0,-139 19,-250 59,-332zm-908 -192l173 46 214 43 285 42 -259 10 -194 -4 -164 -10 -50 -4c-2,-19 -3,-60 -5,-123zm55 -264c13,41 29,80 48,118 17,31 42,67 76,108l-175 -43c3,-11 4,-20 4,-25l4 -19c9,-48 23,-95 43,-139zm470 131l-77 -38 -202 -88 -150 -55c9,-1 15,-2 19,-4 3,-1 6,-2 9,-2 25,-6 45,-9 62,-9 47,0 118,28 211,85 45,31 88,67 128,111zm264 -348l11 -25c0,3 0,6 0,9 -1,4 -2,6 -3,8 0,5 -1,10 -1,15 0,6 0,10 -1,13 -5,40 -14,81 -26,123 -27,94 -55,178 -86,252l-11 24 -85 -37c5,-11 10,-19 12,-24l61 -101c37,-60 74,-133 112,-218l17 -39zm-81 14c-45,86 -100,169 -164,248 -89,-65 -163,-112 -223,-142 -68,-33 -136,-57 -204,-72 -59,48 -108,98 -147,150 -10,34 -17,67 -21,100l-13 95 -5 36c-7,51 -12,131 -13,238 -1,22 -1,70 -1,142 0,95 8,194 23,299 15,97 36,184 64,262 30,28 63,53 96,74l93 -70 2 -69 3 -172 -3 -88c0,-27 -1,-47 -4,-62 -4,-16 -10,-35 -21,-58l-49 -112 -58 -114 24 -4 322 -6 258 4 162 6c-19,90 -29,164 -30,222l-3 172 0 192 10 191 12 141c-127,-59 -241,-95 -340,-108 -18,5 -29,7 -32,8l-69 24c-50,15 -109,29 -176,40 -68,12 -126,18 -175,18l-10 0 -4 0c-61,-13 -121,-33 -180,-61 -59,-27 -121,-61 -185,-103 -62,-41 -122,-90 -182,-145 -61,-55 -118,-113 -168,-173 -16,-130 -24,-224 -24,-282l0 -82 2 -116c0,-16 1,-54 4,-116 27,-51 48,-87 61,-106l33 -52 10 -14 95 -124c43,-52 77,-91 102,-116l68 -71c12,-13 21,-21 25,-27 1,0 7,-2 18,-7 7,-1 11,-2 11,-2l51 -21c61,-24 118,-42 172,-54l125 -29 38 -7 41 -8c15,-3 40,-6 76,-10 93,17 178,36 254,57 70,20 154,48 249,84zm-911 -178l204 -26c-139,42 -258,86 -357,131l-14 14c-54,53 -83,81 -88,84l-67 69 -20 19c-44,45 -81,89 -112,132l-15 18c24,-58 59,-131 104,-219 32,-63 64,-122 95,-176l79 -16 191 -30zm598 -10l184 -2 241 7 -7 74 -201 -39 -260 -37 43 -3z"/>
  <path id="3" class="fil1" d="M6219 755l2 -304 -72 -1 17 647 5 678 35 -485 13 -535zm-61 1241l310 -18 252 -6 -2 68 -229 -3 -245 -15 -170 -16 84 -10zm568 -1023l7 -62 18 164 12 185 5 215 -2 192 -7 217 -10 -48 -20 -160 -11 -179 -3 -171 3 -151 8 -202zm-791 -318l8 -328c9,40 15,72 16,98l15 150 15 217 7 194 3 222 -2 244 -8 145 -27 -187 -15 -200 -10 -205 -2 -350zm76 -362l202 5 470 -5c-2,60 -2,88 -2,82l-5 126c-3,78 -4,146 -4,205l-6 500 3 258 7 244 14 194 -181 -3 -363 8 -101 4 4 -709 -5 -318 -10 -251 -11 -165 -1 -43 -10 -94 0 -19c-1,-4 -1,-10 -1,-19zm378 -126l338 -46 -16 82 -181 14 -215 8 -171 -1 -47 -3 40 -11 252 -43zm-520 22l-2 -91 258 0 211 10 -467 81z"/>
 </g>
</svg>
